<svg id="link" width="24" height="24" viewBox="0 0 28 28" fill="none" xmlns="http://www.w3.org/2000/svg">
    <path d="M13 16C13.0012 16.6571 12.8729 17.3079 12.6224 17.9153C12.3718 18.5227 12.0041 19.0748 11.54 19.54L10.12 21C9.17703 21.9108 7.91402 22.4148 6.60304 22.4034C5.29205 22.392 4.03799 21.8661 3.11095 20.9391C2.18391 20.0121 1.65807 18.758 1.64667 17.447C1.63528 16.136 2.13925 14.873 3.05004 13.93L4.46004 12.51C4.9211 12.037 5.47133 11.6599 6.07894 11.4008C6.68655 11.1416 7.33949 11.0054 8.00004 11C8.26526 11 8.51961 11.1054 8.70715 11.2929C8.89469 11.4804 9.00004 11.7348 9.00004 12C9.00004 12.2652 8.89469 12.5196 8.70715 12.7071C8.51961 12.8947 8.26526 13 8.00004 13C7.20466 13.0007 6.44211 13.3172 5.88004 13.88L4.46004 15.29C3.89646 15.8536 3.57984 16.618 3.57984 17.415C3.57984 18.212 3.89646 18.9764 4.46004 19.54C5.02363 20.1036 5.78801 20.4202 6.58504 20.4202C7.38207 20.4202 8.14646 20.1036 8.71004 19.54L10.12 18.12C10.6828 17.5579 10.9993 16.7954 11 16C11 15.7348 11.1054 15.4804 11.2929 15.2929C11.4805 15.1054 11.7348 15 12 15C12.2653 15 12.5196 15.1054 12.7072 15.2929C12.8947 15.4804 13 15.7348 13 16ZM22.41 6.59001C22.4098 5.60186 22.1168 4.63593 21.568 3.81418C21.0192 2.99244 20.2393 2.35173 19.3266 1.97296C18.4139 1.5942 17.4095 1.49436 16.4401 1.68605C15.4707 1.87774 14.5799 2.35237 13.88 3.05001L12.46 4.46001C11.996 4.9252 11.6282 5.47728 11.3777 6.0847C11.1272 6.69212 10.9989 7.34296 11 8.00001C11 8.26522 11.1054 8.51958 11.2929 8.70711C11.4805 8.89465 11.7348 9.00001 12 9.00001C12.2653 9.00001 12.5196 8.89465 12.7072 8.70711C12.8947 8.51958 13 8.26522 13 8.00001C13.0007 7.20463 13.3173 6.44208 13.88 5.88001L15.29 4.46001C15.5691 4.18095 15.9004 3.95959 16.265 3.80856C16.6296 3.65754 17.0204 3.5798 17.415 3.5798C17.8097 3.5798 18.2005 3.65754 18.5651 3.80856C18.9297 3.95959 19.261 4.18095 19.54 4.46001C19.8191 4.73907 20.0405 5.07036 20.1915 5.43497C20.3425 5.79957 20.4202 6.19036 20.4202 6.58501C20.4202 6.97966 20.3425 7.37044 20.1915 7.73505C20.0405 8.09966 19.8191 8.43095 19.54 8.71001L18.12 10.12C17.558 10.6828 16.7954 10.9993 16 11C15.7348 11 15.4805 11.1054 15.2929 11.2929C15.1054 11.4804 15 11.7348 15 12C15 12.2652 15.1054 12.5196 15.2929 12.7071C15.4805 12.8947 15.7348 13 16 13C16.6571 13.0012 17.3079 12.8728 17.9153 12.6223C18.5228 12.3718 19.0749 12.004 19.54 11.54L21 10.12C21.9164 9.17485 22.4231 7.90641 22.41 6.59001ZM8.29004 15.71C8.38301 15.8037 8.49361 15.8781 8.61547 15.9289C8.73733 15.9797 8.86803 16.0058 9.00004 16.0058C9.13206 16.0058 9.26276 15.9797 9.38462 15.9289C9.50648 15.8781 9.61708 15.8037 9.71004 15.71L15.71 9.71001C15.8983 9.5217 16.0041 9.26631 16.0041 9.00001C16.0041 8.73371 15.8983 8.47831 15.71 8.29001C15.5217 8.1017 15.2663 7.99592 15 7.99592C14.7337 7.99592 14.4783 8.1017 14.29 8.29001L8.29004 14.29C8.19631 14.383 8.12192 14.4936 8.07115 14.6154C8.02038 14.7373 7.99425 14.868 7.99425 15C7.99425 15.132 8.02038 15.2627 8.07115 15.3846C8.12192 15.5064 8.19631 15.617 8.29004 15.71Z" fill="white" />
</svg>
