<svg width="24" height="24" viewBox="0 0 24 24" fill="none" xmlns="http://www.w3.org/2000/svg"><path d="M5.12005 13.89C5.04034 13.8996 4.95976 13.8996 4.88005 13.89H4.75005L4.60005 13.81L4.49005 13.75L2.05005 11.75C1.85777 11.5975 1.73394 11.3749 1.70581 11.1311C1.67768 10.8873 1.74755 10.6423 1.90005 10.45C2.05255 10.2577 2.27518 10.1339 2.51898 10.1058C2.76278 10.0776 3.00777 10.1475 3.20005 10.3L3.97005 10.93C4.177 9.35475 4.84264 7.87513 5.88414 6.67531C6.92564 5.4755 8.29699 4.60847 9.82752 4.18213C11.358 3.7558 12.9802 3.789 14.492 4.27759C16.0038 4.76618 17.3385 5.68859 18.33 6.93001C18.4131 7.0323 18.4751 7.14999 18.5126 7.27633C18.55 7.40267 18.5621 7.53516 18.5482 7.66619C18.5342 7.79722 18.4945 7.9242 18.4314 8.03984C18.3682 8.15547 18.2828 8.25748 18.18 8.34001C18.0771 8.42252 17.9589 8.48385 17.8322 8.52048C17.7055 8.55711 17.5728 8.56832 17.4417 8.55344C17.3107 8.53857 17.1839 8.49792 17.0686 8.43383C16.9533 8.36974 16.8518 8.28348 16.77 8.18001C16.0246 7.26112 15.028 6.57887 13.9017 6.21636C12.7753 5.85386 11.5679 5.82675 10.4264 6.13835C9.28497 6.44995 8.25877 7.0868 7.47284 7.97131C6.68692 8.85582 6.17521 9.94981 6.00005 11.12L7.00005 10.31C7.18624 10.2096 7.40188 10.1779 7.60908 10.2206C7.81629 10.2633 8.00183 10.3777 8.13311 10.5436C8.2644 10.7095 8.33305 10.9163 8.327 11.1278C8.32096 11.3393 8.2406 11.5419 8.10005 11.7L5.66005 13.7C5.60551 13.7339 5.54871 13.7639 5.49005 13.79C5.39349 13.8305 5.29293 13.8606 5.19005 13.88L5.12005 13.89ZM22 12.3L19.56 10.3C19.5021 10.266 19.442 10.236 19.38 10.21L19.08 10.12H19C18.9203 10.1104 18.8398 10.1104 18.76 10.12H18.62L18.48 10.2L18.37 10.26L15.93 12.26C15.7457 12.4125 15.6295 12.632 15.607 12.8702C15.5845 13.1083 15.6575 13.3457 15.81 13.53C15.9625 13.7143 16.182 13.8305 16.4202 13.853C16.6584 13.8755 16.8957 13.8025 17.08 13.65L18.08 12.84C17.9213 14.0295 17.4157 15.1459 16.6264 16.05C15.8372 16.954 14.7992 17.6055 13.642 17.9234C12.4848 18.2412 11.2596 18.2112 10.1193 17.8372C8.97902 17.4631 7.97414 16.7615 7.23005 15.82C7.14825 15.7165 7.04678 15.6303 6.9315 15.5662C6.81622 15.5021 6.6894 15.4614 6.55835 15.4466C6.42729 15.4317 6.29458 15.4429 6.16787 15.4795C6.04116 15.5162 5.92295 15.5775 5.82005 15.66C5.71732 15.7425 5.63192 15.8445 5.56874 15.9602C5.50557 16.0758 5.46587 16.2028 5.45193 16.3338C5.43799 16.4649 5.45009 16.5973 5.48752 16.7237C5.52495 16.85 5.58698 16.9677 5.67005 17.07C6.66159 18.3114 7.99632 19.2338 9.50813 19.7224C11.0199 20.211 12.642 20.2442 14.1726 19.8179C15.7031 19.3915 17.0745 18.5245 18.116 17.3247C19.1575 16.1249 19.8231 14.6453 20.03 13.07L20.81 13.71C20.997 13.8678 21.239 13.9449 21.4828 13.9242C21.7266 13.9036 21.9522 13.787 22.11 13.6C22.2679 13.413 22.3449 13.171 22.3243 12.9272C22.3037 12.6834 22.187 12.4578 22 12.3Z" fill="white"></path></svg>