<svg xmlns="http://www.w3.org/2000/svg" width="20" height="20" viewBox="0 0 20 20" fill="none">
    <path fill-rule="evenodd" clip-rule="evenodd" d="M6.4 4.3C5.40589 4.3 4.6 5.10589 4.6 6.1C4.6 6.63301 4.83053 7.111 5.20022 7.44187C5.5706 7.77337 5.60211 8.34234 5.27062 8.71272C4.93913 9.08309 4.37015 9.11461 3.99978 8.78312C3.26472 8.12522 2.8 7.16628 2.8 6.1C2.8 4.11177 4.41177 2.5 6.4 2.5C7.32145 2.5 8.16391 2.84737 8.80022 3.41688C9.1706 3.74838 9.20212 4.31735 8.87062 4.68773C8.53913 5.0581 7.97015 5.08962 7.59978 4.75813C7.28073 4.47257 6.86159 4.3 6.4 4.3ZM11.1998 3.41688C11.8361 2.84737 12.6786 2.5 13.6 2.5C15.5882 2.5 17.2 4.11177 17.2 6.1C17.2 7.16628 16.7353 8.12522 16.0002 8.78312C15.6298 9.11461 15.0609 9.08309 14.7294 8.71272C14.3979 8.34234 14.4294 7.77337 14.7998 7.44187C15.1695 7.111 15.4 6.63301 15.4 6.1C15.4 5.10589 14.5941 4.3 13.6 4.3C13.1384 4.3 12.7193 4.47257 12.4002 4.75813C12.0298 5.08962 11.4609 5.0581 11.1294 4.68773C10.7979 4.31735 10.8294 3.74838 11.1998 3.41688ZM10 7C9.00589 7 8.2 7.80589 8.2 8.8C8.2 9.79411 9.00589 10.6 10 10.6C10.9941 10.6 11.8 9.79411 11.8 8.8C11.8 7.80589 10.9941 7 10 7ZM6.4 8.8C6.4 6.81177 8.01177 5.2 10 5.2C11.9882 5.2 13.6 6.81177 13.6 8.8C13.6 10.7882 11.9882 12.4 10 12.4C8.01177 12.4 6.4 10.7882 6.4 8.8ZM5.47058 11.4968C5.59663 11.9776 5.30903 12.4695 4.82822 12.5956C4.1375 12.7767 3.60154 13.062 3.25581 13.3729C2.91253 13.6816 2.8 13.9695 2.8 14.2003C2.8 14.6974 2.39706 15.1003 1.9 15.1003C1.40294 15.1003 1 14.6974 1 14.2003C1 13.324 1.44282 12.5825 2.05221 12.0345C2.65915 11.4887 3.47319 11.09 4.37178 10.8544C4.85259 10.7284 5.34454 11.016 5.47058 11.4968ZM14.5294 11.4968C14.6555 11.016 15.1474 10.7284 15.6282 10.8544C16.5268 11.09 17.3408 11.4887 17.9478 12.0345C18.5572 12.5825 19 13.324 19 14.2003C19 14.6974 18.5971 15.1003 18.1 15.1003C17.6029 15.1003 17.2 14.6974 17.2 14.2003C17.2 13.9695 17.0875 13.6816 16.7442 13.3729C16.3985 13.062 15.8625 12.7767 15.1718 12.5956C14.691 12.4695 14.4034 11.9776 14.5294 11.4968ZM6.35497 14.2191C7.33143 13.6332 8.62229 13.3 10 13.3C11.3777 13.3 12.6686 13.6332 13.645 14.2191C14.6036 14.7942 15.4 15.7141 15.4 16.9C15.4 17.3971 14.9971 17.8 14.5 17.8C14.0029 17.8 13.6 17.3971 13.6 16.9C13.6 16.5947 13.3891 16.1646 12.7189 15.7626C12.0667 15.3712 11.1076 15.1 10 15.1C8.89243 15.1 7.93329 15.3712 7.28107 15.7626C6.61092 16.1646 6.4 16.5947 6.4 16.9C6.4 17.3971 5.99706 17.8 5.5 17.8C5.00294 17.8 4.6 17.3971 4.6 16.9C4.6 15.7141 5.39644 14.7942 6.35497 14.2191Z" fill="white"></path>
</svg>
